<svg xmlns="http://www.w3.org/2000/svg" width="343.83" height="147.431" viewBox="0 0 343.83 147.431"><defs><style>.a{fill:#ee9e20;}.b{fill:#200e09;}</style></defs><g transform="translate(-85.585 -45.53)"><path class="a" d="M321.651,139.557c0,.111-.109.16-.324.16-.176,0-.428-.011-.76-.039s-.579-.039-.754-.039-.432.012-.777.039-.6.039-.774.039q-.383,0-.974-2.059t-1.207-2.092c-.333-.013-1.21-.023-2.627-.023h-2.145c-1.5,0-2.355.01-2.561.023-.328.03-.671.729-1.041,2.1s-.653,2.053-.854,2.053H303.79c-.182,0-.27-.064-.27-.186a2.37,2.37,0,0,1,.191-.614l3.333-9.12q.428-1.1,2.56-6.354c.259-.582.594-1.456,1.031-2.627.113-.344.234-.517.36-.517a5.836,5.836,0,0,1,.757.066,6.263,6.263,0,0,0,.764.068,4.953,4.953,0,0,0,.741-.075,5.98,5.98,0,0,1,.727-.076c.085,0,.2.171.348.5q.326.766,3.223,8.209Q321.652,139.458,321.651,139.557Zm-6.344-7.513a23.1,23.1,0,0,0-1.221-3.541c-.794-2.028-1.351-3.367-1.679-4q-2.816,7.188-2.816,7.528c0,.305.344.49,1.036.545.032.008.481.013,1.33.013h1.406C314.663,132.588,315.307,132.4,315.307,132.044Z"/><path class="a" d="M344.188,127.673a7.362,7.362,0,0,1-1.73,5.118,6.327,6.327,0,0,1-4.942,1.977c-.518,0-1.3-.024-2.348-.062s-1.836-.062-2.359-.062c-.29,0-.436.186-.436.56,0,.475.03,1.2.083,2.163s.1,1.68.1,2.164c0,.153-.092.231-.261.231-.194,0-.479-.021-.862-.061s-.672-.062-.871-.062c-.162,0-.4.012-.719.039s-.552.039-.707.039c-.224,0-.341-.136-.341-.419q0-1.486.126-4.477c.09-1.994.135-3.494.135-4.492q0-4.249-.32-9.118l-.007-.205c-.013-.2.108-.3.353-.3.491,0,1.23,0,2.212.012s1.729.016,2.222.016c.431,0,1.07-.021,1.923-.053s1.49-.057,1.92-.057a6.5,6.5,0,0,1,4.939,2.041A7.013,7.013,0,0,1,344.188,127.673Zm-3.432.206a4.7,4.7,0,0,0-1.105-3.264,3.993,3.993,0,0,0-3.16-1.282c-.41,0-1.157.034-2.227.11a7.211,7.211,0,0,0-1.891.213,46.421,46.421,0,0,0-.1,4.688c0,.381.01.95.033,1.717s.037,1.332.037,1.713c0,.077.1.146.3.187a31.534,31.534,0,0,0,4.149.149,3.774,3.774,0,0,0,2.966-1.181A4.438,4.438,0,0,0,340.756,127.879Z"/><path class="a" d="M367.153,127.673a7.348,7.348,0,0,1-1.729,5.118,6.322,6.322,0,0,1-4.937,1.977c-.514,0-1.3-.024-2.349-.062s-1.837-.062-2.364-.062c-.288,0-.437.186-.437.56,0,.475.033,1.2.089,2.163s.094,1.68.094,2.164c0,.153-.09.231-.26.231-.191,0-.478-.021-.863-.061s-.676-.062-.869-.062c-.162,0-.4.012-.719.039s-.555.039-.709.039c-.227,0-.336-.136-.336-.419q0-1.486.123-4.477c.086-1.994.132-3.494.132-4.492q0-4.249-.312-9.118l-.016-.205c-.005-.2.112-.3.356-.3.491,0,1.226,0,2.211.012s1.73.016,2.225.016c.429,0,1.067-.021,1.918-.053s1.494-.057,1.922-.057a6.516,6.516,0,0,1,4.943,2.041A7.015,7.015,0,0,1,367.153,127.673Zm-3.426.206a4.7,4.7,0,0,0-1.1-3.264,4,4,0,0,0-3.155-1.282c-.422,0-1.169.034-2.236.11a7.353,7.353,0,0,0-1.9.213c-.057.111-.09,1.675-.09,4.688,0,.381.005.95.033,1.717s.031,1.332.031,1.713c0,.077.1.146.307.187a31.536,31.536,0,0,0,4.148.149,3.784,3.784,0,0,0,2.968-1.181A4.483,4.483,0,0,0,363.727,127.879Z"/><path class="a" d="M385.606,122c-.181.3-.429.753-.749,1.36a13.053,13.053,0,0,1-.529,1.2.255.255,0,0,1-.218.123s-.431-.159-1.319-.483a6.694,6.694,0,0,0-2.181-.484c-1.672,0-2.5.736-2.5,2.207,0,.814.58,1.528,1.752,2.134,1.968,1.029,3.057,1.615,3.263,1.775a4.575,4.575,0,0,1,1.756,3.78,5.61,5.61,0,0,1-2.408,4.8,8.775,8.775,0,0,1-5.319,1.581c-.983,0-1.508-.111-1.583-.324-.033-.344-.12-.851-.246-1.515-.067-.274-.183-.677-.337-1.223a.7.7,0,0,1-.038-.231c0-.126.066-.194.2-.194.215,0,.551.024,1,.071s.786.069,1.016.069q4.213,0,4.216-2.723a2.763,2.763,0,0,0-1.7-2.314q-3.1-1.771-3.17-1.836a4.553,4.553,0,0,1-1.713-3.732,5.242,5.242,0,0,1,1.656-4.053,6,6,0,0,1,4.2-1.472,10.421,10.421,0,0,1,2.5.356,7.062,7.062,0,0,1,2.318.949A.694.694,0,0,1,385.606,122Z"/><path class="b" d="M301.529,188.462c0,.415-.309.695-.931.845a7.653,7.653,0,0,1-1.913.042c-1.215-.057-1.743-.085-1.6-.085-2.336,0-3.746-.268-4.216-.8q-2.712-4.04-8.26-11.855a6.984,6.984,0,0,0-1.2-1.421q-.4,0-4.975,6.795-4.662,6.924-5.637,7.1a57.981,57.981,0,0,1-6.311.179c-.7,0-1.062-.268-1.062-.8v-4.839q0-.492,5.9-7.638t5.908-7.859q0-.669-5.908-7.775t-5.9-7.812v-4.754c0-.588.359-.886,1.062-.886.741,0,1.852.059,3.34.175,1.472.123,2.585.179,3.326.179a1.416,1.416,0,0,1,1.111.619q2.617,4.05,7.99,11.906a9.787,9.787,0,0,0,1.156,1.465c.086,0,.414-.383.977-1.157q2.577-3.507,8.482-12.388a1.262,1.262,0,0,1,1.02-.624c.743,0,1.838-.026,3.284-.085s2.535-.09,3.247-.09c.737,0,1.106.3,1.106.886v4.659q0,.813-5.923,7.907-5.934,7.11-5.935,7.816,0,.45,5.935,7.594t5.923,7.95Z"/><path class="b" d="M345.77,165.416a4.285,4.285,0,0,1-2.849,4.393q-1.906.714-27.482,2.624a10,10,0,0,0,4.307,6.66,12.6,12.6,0,0,0,7.638,2.621,20.577,20.577,0,0,0,12.876-4.532q.708-.578,1.423-1.151a.79.79,0,0,1,.467.088c.071.061.628,1.086,1.665,3.083a27.361,27.361,0,0,1,1.553,3.221c0,.179-.239.519-.711,1.022a21.99,21.99,0,0,1-16.742,6.926q-10.3,0-16.429-6.151t-6.124-16.4a23.625,23.625,0,0,1,5.859-15.941,19.339,19.339,0,0,1,15.14-7.059,18.094,18.094,0,0,1,13.94,6.125A20.608,20.608,0,0,1,345.77,165.416Zm-10.57-2.71a8.881,8.881,0,0,0-2.911-6.526,9.145,9.145,0,0,0-6.55-2.843,9.84,9.84,0,0,0-7.261,3.285,10.393,10.393,0,0,0-3.175,7.372q0,.935,1.6.933a111.973,111.973,0,0,0,15.723-1.331Q335.2,163.24,335.2,162.706Z"/><path class="b" d="M376.358,169.689"/><path class="b" d="M407.479,119.712c-8.563-7.367-16.654-14.321-16.725-21.741-.037-3.586,1.787-7.14,5.56-10.835,2.69.74,6,.04,7.343-5.128,1.6-6.12-2.114-11.343-2.381-12.6a16.273,16.273,0,0,1-6.866,7.37c-3.4,1.754-3.767,5.549-1.644,8.224a6.157,6.157,0,0,0,1.888,1.478c-3.761,3.841-5.577,7.627-5.538,11.514.08,8.158,8.442,15.345,17.3,22.965,14.535,12.5,29.564,25.423,16.181,45.592a62.253,62.253,0,0,1-18.4,18.23.9.9,0,0,0-.3.077c-13.914,6.777-18.932,4.276-20.68,2.178-2.317-2.76.178-11.744,1.335-14.977l.2-.558.038.007a23.076,23.076,0,0,0,1.126-16.036c-1.436-5.6-6.822-8.818-8.418-9.617-1.913-.945-15.16-4.039-20.356,5.116v-3.9a6.8,6.8,0,0,0,0-.783c-.07-.409-.472-.4-.72-.537a10.138,10.138,0,0,0-1.876-.283,15.756,15.756,0,0,0-1.7-.067c-.714,0-2.924.016-3.354.067a3.218,3.218,0,0,0-1.072.277,1.227,1.227,0,0,0-.561.467,1.314,1.314,0,0,0-.139.625V188.7a1.089,1.089,0,0,0,.168.621,1.19,1.19,0,0,0,.6.446c.3.123,2.328.216,2.822.275a14.755,14.755,0,0,0,1.865.1,15.162,15.162,0,0,0,1.9-.1,4.226,4.226,0,0,0,1.165-.275,1.4,1.4,0,0,0,.607-.446,1.051,1.051,0,0,0,.183-.621V161.082c3.072-11.952,14.61-9.406,15.743-8.843a9.416,9.416,0,0,1,3.043,2.153,12.735,12.735,0,0,1,2.185,3.4c1.84,3.95.213,10.107-.707,12.677l-.039-.006-.236.51c-.145.3-3.568,7.571-2.529,14.248.025.231.663,5.673,7.787,7.373a14.4,14.4,0,0,0,3.383.368c5.372,0,12.347-2.366,19.072-6.588a63.778,63.778,0,0,0,19.222-18.915C438.136,146.081,421.851,132.072,407.479,119.712Z"/><path class="b" d="M226.7,68.4c.183-5.411-4.7-10.821-11.995-14.351-5.671-2.744-12.24-5.715-18.065-8.114-5.761-2.371-1.139,6.219,3.553,9.291,4.637,3.04,3.844,2.124,9.754,6.056,5.33,3.547,4.834,4.222,4.417,6.107-1.731,3.994-28.115,6.853-42.951,8.666a4.128,4.128,0,0,0-1.811.211c-23.691,2.705-45.023,2.381-68.542-3.314l-3.291-1.493c-.94-3.764,6.64-7.955,11.843-11.761,4.594-3.366,9.41-11.024,2.822-8.669-4.072,1.455-4.572,1.373-9.634,4.432a59.021,59.021,0,0,0-10.071,7.008c-3.941,3.547-8.453,9.694-6.789,14.807.7,2.132,7.164,4.529,9.469,5.13,22.787,5.967,38.516,7.658,61.562,5.832-13.185,29.066-16.12,67.842-5.024,98.786,2.483,6.916,16.429,2.532,14.175-3.761-13.041-36.367-9.715-62.311,7.812-96.205A256.137,256.137,0,0,0,223,75.612C225.879,74.639,226.61,71.237,226.7,68.4Z"/><path class="b" d="M214.34,167.39q0,10.192-6.234,16.54t-16.384,6.348q-9.834,0-16.182-6.259t-6.347-16.093q0-10.368,6.08-16.83t16.449-6.458q10.1,0,16.36,6.325T214.34,167.39Zm-12.289-.007a12.511,12.511,0,0,0-2.846-8.1,9.055,9.055,0,0,0-7.38-3.518,9.36,9.36,0,0,0-7.555,3.6,13,13,0,0,0,0,16.1,9.659,9.659,0,0,0,15.051,0A12.42,12.42,0,0,0,202.051,167.383Z"/><path class="b" d="M262.741,167.39q0,10.192-6.235,16.54t-16.383,6.348q-9.834,0-16.182-6.259t-6.348-16.093q0-10.368,6.08-16.83t16.45-6.458q10.1,0,16.36,6.325T262.741,167.39Zm-12.287-.007a12.518,12.518,0,0,0-2.848-8.1,9.055,9.055,0,0,0-7.379-3.518,9.359,9.359,0,0,0-7.555,3.6,13,13,0,0,0,0,16.1,9.658,9.658,0,0,0,15.05,0A12.427,12.427,0,0,0,250.454,167.383Z"/></g></svg>